<svg width="250" height="272" viewBox="0 0 250 272" fill="none" xmlns="http://www.w3.org/2000/svg">
<g filter="url(#filter0_d_1_2257)">
<path d="M111.06 3.66059C119.514 -1.2202 129.93 -1.22019 138.383 3.66059L211.782 44.1469C220.707 49.2996 225.973 59.0354 225.402 69.3249L220.607 155.633C220.111 164.559 215.28 172.677 207.672 177.371L139.068 217.804C130.273 223.23 119.171 223.23 110.376 217.804L41.7721 177.371C34.1639 172.677 29.333 164.559 28.8371 155.633L24.0422 69.3249C23.4706 59.0354 28.7369 49.2996 37.6617 44.1469L111.06 3.66059Z" fill="white"/>
<path d="M111.311 4.09375C119.61 -0.697715 129.835 -0.697715 138.134 4.09375L138.142 4.09863L211.531 44.5801H211.532C220.293 49.6384 225.463 59.1958 224.902 69.2969L220.107 155.605C219.62 164.368 214.878 172.338 207.409 176.945L138.814 217.373H138.813L138.806 217.379C130.172 222.705 119.272 222.705 110.639 217.379L110.63 217.373L42.0264 176.94C34.5623 172.332 29.8227 164.365 29.3359 155.605L24.541 69.2969C23.9887 59.3535 28.9904 49.937 37.5039 44.8203L37.9121 44.5801L111.302 4.09863L111.311 4.09375Z" stroke="#E4E4E7"/>
</g>
<path d="M205.147 147.669L144.327 114.553C132.108 107.899 117.348 107.899 105.129 114.553L44.3078 147.669C39.593 150.237 39.5461 156.989 44.2248 159.622L104.631 193.609C117.109 200.63 132.346 200.63 144.825 193.609L205.23 159.622C209.909 156.989 209.862 150.237 205.147 147.669Z" fill="#B0C4FD"/>
<path d="M77.7801 88.0705C71.8616 83.1593 75.1795 68.845 82.8704 68.845H165.419C173.109 68.845 176.427 83.1593 170.509 88.0705C162.724 94.5302 156.736 102.373 156.736 111.215C156.736 127.552 177.862 140.478 192.791 147.573C198.18 150.134 198.706 158.2 193.456 161.035L142.002 188.82C131.875 194.289 119.674 194.289 109.546 188.82L57.7095 160.828C52.5185 158.025 52.9469 150.069 58.1988 147.382C72.1402 140.247 91.5525 127.407 91.5525 111.215C91.5525 102.373 85.5646 94.5302 77.7801 88.0705Z" fill="url(#paint0_linear_1_2257)"/>
<path d="M205.147 59.6767L144.327 26.56C132.108 19.9068 117.348 19.9068 105.129 26.56L44.3078 59.6767C39.593 62.2439 39.5461 68.9965 44.2248 71.629L104.631 105.616C117.109 112.637 132.346 112.637 144.825 105.616L205.23 71.629C209.909 68.9965 209.862 62.2439 205.147 59.6767Z" fill="#1B1464"/>
<defs>
<filter id="filter0_d_1_2257" x="0" y="0" width="249.444" height="271.873" filterUnits="userSpaceOnUse" color-interpolation-filters="sRGB">
<feFlood flood-opacity="0" result="BackgroundImageFix"/>
<feColorMatrix in="SourceAlpha" type="matrix" values="0 0 0 0 0 0 0 0 0 0 0 0 0 0 0 0 0 0 127 0" result="hardAlpha"/>
<feOffset dy="26"/>
<feGaussianBlur stdDeviation="12"/>
<feComposite in2="hardAlpha" operator="out"/>
<feColorMatrix type="matrix" values="0 0 0 0 0 0 0 0 0 0 0 0 0 0 0 0 0 0 0.07 0"/>
<feBlend mode="normal" in2="BackgroundImageFix" result="effect1_dropShadow_1_2257"/>
<feBlend mode="normal" in="SourceGraphic" in2="effect1_dropShadow_1_2257" result="shape"/>
</filter>
<linearGradient id="paint0_linear_1_2257" x1="130.662" y1="81.8818" x2="130.411" y2="155.151" gradientUnits="userSpaceOnUse">
<stop stop-color="#0022CF"/>
<stop offset="1" stop-color="#B0C4FD"/>
</linearGradient>
</defs>
</svg>
